<svg width="1018" height="753" viewBox="0 0 1018 753" fill="none" xmlns="http://www.w3.org/2000/svg">
<g clip-path="url(#clip0_2_3)">
<path d="M339.095 730.85C308.025 730.85 277.002 730.367 246.025 729.4C201.762 728.02 155.993 726.593 113.452 706.102C83.6926 691.769 57.3362 668.772 37.2327 639.598C23.9699 620.2 14.0927 598.694 8.02123 575.993C5.0511 565.073 2.89576 553.947 1.57298 542.707C-2.04949 512.343 0.517273 481.559 9.11839 452.214C13.2954 438.172 18.9867 424.625 26.092 411.813C57.1155 356.02 113.7 318.567 181.337 309.06C181.896 308.997 182.46 308.986 183.022 309.028C183.326 309.042 183.629 309.058 183.938 309.046L184.336 308.937C185.362 308.627 186.409 308.394 187.469 308.238C291.783 294.751 402.059 322.04 506.366 387.152C587.015 437.503 693.899 464.616 833.125 470.041L835.102 470.131C873.859 472.064 911.349 485.941 943.523 510.264C974.961 533.841 998.907 566.008 1012.48 602.888C1014.12 607.349 1015.62 611.992 1016.95 616.688C1019.46 625.571 1016.55 634.547 1008.96 641.379V641.388L1008.61 641.697C1007.78 642.418 1006.9 643.109 1006 643.753L1004.94 644.509C996.046 650.874 989.018 655.902 980.608 659.808C974.93 662.417 968.974 664.37 962.854 665.629C928.926 672.813 894.472 679.473 860.449 685.426C794.373 696.996 726.556 706.541 658.883 713.794C552.666 725.162 445.918 730.855 339.095 730.85V730.85ZM182.231 311.004C182.023 311.003 181.816 311.015 181.61 311.041C114.605 320.46 58.5559 357.545 27.8401 412.786C20.8049 425.471 15.1698 438.883 11.0344 452.786C2.51124 481.87 -0.0315979 512.379 3.55932 542.473C4.87047 553.614 7.00687 564.642 9.95091 575.467C15.963 597.95 25.7444 619.251 38.8791 638.463C58.7859 667.352 84.8728 690.117 114.32 704.299C156.479 724.606 202.033 726.027 246.087 727.4C383.809 731.678 521.663 726.468 658.669 711.806C726.299 704.557 794.072 695.018 860.104 683.455C894.104 677.507 928.534 670.852 962.439 663.672C968.412 662.445 974.225 660.539 979.765 657.993C988.007 654.167 994.967 649.186 1003.78 642.882L1004.83 642.127C1005.61 641.573 1006.36 640.981 1007.09 640.366L1007.3 640.177C1014.54 633.838 1017.36 625.475 1015.02 617.232V617.231C1013.71 612.585 1012.22 607.991 1010.6 603.576C983.32 528.83 912.755 476.007 835.006 472.129L833.04 472.039C769.444 469.56 713.792 462.695 662.912 451.049C602.173 437.146 549.147 416.219 505.306 388.848C401.397 323.986 291.583 296.799 187.724 310.222C186.758 310.366 185.804 310.581 184.87 310.864L184.153 311.039C183.739 311.061 183.334 311.044 182.93 311.026C182.69 311.015 182.458 311.004 182.231 311.004Z" fill="#F0F0F0"/>
<path d="M1007.96 640.93V640.94C1007.15 641.64 1006.3 642.31 1005.42 642.94C990.736 653.45 980.706 660.82 962.646 664.65C928.646 671.85 894.523 678.447 860.276 684.44C793.466 696.14 726.3 705.593 658.776 712.8C521.726 727.494 383.825 732.706 246.056 728.4C200.176 726.97 155.926 725.45 113.886 705.2C83.1562 690.4 57.3362 667.01 38.0562 639.03C18.5062 610.66 6.61628 577.09 2.56622 542.59C12.0857 538.435 22.1992 535.803 32.5362 534.79C68.4162 531.37 103.726 544.51 136.356 559.8C168.996 575.08 201.046 592.94 236.386 599.99C288.466 610.38 342.226 596.25 392.156 578.16C442.086 560.07 491.236 537.73 543.896 530.9C614.526 521.73 685.396 541.14 753.976 560.36C827.026 580.83 900.08 601.303 973.136 621.78C983.576 624.7 994.406 627.83 1002.55 634.99C1004.56 636.763 1006.38 638.755 1007.96 640.93Z" fill="#E6E6E6"/>
<path d="M1007.96 640.93V640.94C1007.15 641.64 1006.3 642.31 1005.42 642.94C996.216 649.52 988.846 654.88 980.186 658.9C950.416 661.83 920.606 664.367 890.756 666.51C813.926 672.02 736.946 674.95 659.816 675.3C503.346 676.1 338.836 681 201.836 605C156.251 579.712 90.2162 631.57 45.0562 603.84C32.0389 595.82 19.9429 586.394 8.98624 575.73C6.0271 564.858 3.88115 553.781 2.56619 542.59C-1.059 512.361 1.49602 481.711 10.0762 452.5C14.2274 438.526 19.8909 425.046 26.9662 412.3C47.9462 419.83 68.0662 430.67 87.2162 442.15C122.336 463.18 156.486 487.06 195.596 499.1C253.246 516.85 315.616 507.09 374.116 492.41C432.616 477.73 490.726 458.17 551.016 456.52C631.876 454.31 709.706 484.42 784.976 514.05C860.486 543.78 936.006 573.507 1011.54 603.23C1013.2 607.74 1014.68 612.317 1015.99 616.96C1018.66 626.4 1014.79 634.95 1007.96 640.93Z" fill="#F2F2F2"/>
<path d="M271.724 257.027C260.351 249.36 261.464 232.585 273.49 225.992C273.735 225.858 273.975 225.719 274.21 225.576C274.813 222.689 275.416 219.803 276.018 216.916C279.566 220.601 286.543 219.906 289.293 215.593C279.703 195.135 267.091 176.235 251.882 159.527C248.566 155.867 246.706 151.12 246.652 146.181C246.599 141.243 248.356 136.456 251.591 132.725C251.649 132.658 251.707 132.589 251.764 132.521C260.353 129.62 268.486 125.513 275.918 120.323C250.428 79.3696 201.823 46.8344 190.27 -3.05176e-05C155.513 37.3246 151.611 50.47 116.855 87.7946C116.855 87.7946 83.944 117.492 76.8405 133.452C78.5858 135.285 94.2119 139.685 94.8126 143.289C106.729 144.245 127.375 131.183 127.375 131.183C127.375 131.183 82.3129 179.224 68.6316 208.815C67.3996 211.479 66.2295 214.522 67.2616 217.27C68.0856 219.465 71.0417 220.73 72.9456 219.858C70.6713 222.051 68.8452 224.666 67.569 227.557C71.5391 230.092 76.248 231.214 80.9348 230.742C85.6215 230.27 90.0121 228.231 93.397 224.955C91.4914 228.516 89.5858 232.076 87.6802 235.636L87.6836 235.644C90.258 236.486 92.5684 237.984 94.3865 239.992C96.2045 241.999 97.4674 244.446 98.0502 247.091C98.633 249.736 98.5157 252.487 97.7097 255.073C96.9038 257.659 95.4372 259.989 93.4547 261.835C81.6295 272.833 70.8244 284.393 66.8651 292.006C63.1404 299.168 101.384 307.801 109.986 307.447C118.588 307.093 126.629 303.313 134.398 299.604C134.019 303.146 134.697 306.722 136.345 309.88C140.6 310.913 145.018 311.084 149.34 310.386C153.663 309.687 157.801 308.132 161.514 305.811C161.171 312.896 170.108 316.808 176.311 314.802C173.214 363.792 175.48 432.585 178.455 504H185.836V317.626C187.8 318.621 189.901 319.32 192.071 319.698C207.173 322.379 225.397 324.009 235.224 312.232C246.534 323.637 267.261 323.421 278.506 312.056C277.399 314.017 279.093 317.316 281.598 317.836C284.551 318.449 287.424 316.694 289.931 315.018C301.281 307.43 312.631 299.842 323.98 292.254C309.974 282.813 290.079 269.4 271.724 257.027Z" fill="#E6E6E6"/>
<path d="M612.423 234.228C632.107 234.228 648.063 218.271 648.063 198.588C648.063 178.904 632.107 162.948 612.423 162.948C592.74 162.948 576.783 178.904 576.783 198.588C576.783 218.271 592.74 234.228 612.423 234.228Z" fill="#F2F2F2"/>
<path d="M692.194 181.714C690.132 174.809 684.309 170.301 677.272 169.312C677.194 169.302 677.121 169.316 677.044 169.311C676.944 169.281 676.843 169.257 676.74 169.241C666.771 168.026 656.685 170.222 648.124 175.47C639.874 180.62 630.263 182.949 620.546 183.327C620.488 183.33 620.431 183.332 620.374 183.335C616.762 183.576 613.312 184.924 610.493 187.196C607.675 189.467 605.625 192.552 604.623 196.031C604.516 196.457 604.548 196.905 604.713 197.312C604.879 197.718 605.169 198.062 605.543 198.292C606.619 199.204 607.895 199.852 609.266 200.182C612.226 200.809 615.197 201.384 618.178 201.905C623.995 202.923 629.842 203.746 635.72 204.374C647.651 205.653 659.656 206.107 671.65 205.732C675.644 205.608 679.496 205.475 683.156 203.712C685.819 202.397 688.094 200.412 689.757 197.952C691.325 195.588 692.355 192.908 692.776 190.103C693.197 187.298 692.998 184.434 692.194 181.714V181.714Z" fill="#E6E6E6"/>
<path d="M618.119 229.234C616.057 222.329 610.233 217.821 603.197 216.832C603.119 216.822 603.046 216.836 602.969 216.831C602.869 216.801 602.767 216.777 602.664 216.761C592.696 215.546 582.61 217.742 574.049 222.99C565.799 228.14 556.189 230.469 546.471 230.847C546.414 230.85 546.356 230.852 546.298 230.855C542.686 231.096 539.236 232.444 536.418 234.716C533.6 236.987 531.55 240.072 530.547 243.551C530.441 243.977 530.473 244.425 530.638 244.832C530.803 245.238 531.094 245.582 531.468 245.812C532.544 246.724 533.819 247.372 535.191 247.702C538.151 248.329 541.122 248.903 544.103 249.425C549.92 250.443 555.767 251.266 561.645 251.894C573.576 253.173 585.581 253.627 597.575 253.252C601.569 253.128 605.421 252.995 609.081 251.232C611.744 249.917 614.019 247.932 615.682 245.472C617.25 243.107 618.28 240.428 618.701 237.623C619.122 234.818 618.923 231.954 618.119 229.234V229.234Z" fill="#E6E6E6"/>
<path d="M919.724 378.027C908.351 370.36 909.464 353.585 921.49 346.992C921.735 346.858 921.975 346.719 922.21 346.576C922.813 343.689 923.416 340.803 924.018 337.916C927.566 341.601 934.543 340.906 937.293 336.593C927.703 316.135 915.091 297.235 899.882 280.527C896.566 276.867 894.706 272.12 894.652 267.181C894.599 262.243 896.356 257.456 899.591 253.725C899.649 253.658 899.707 253.589 899.764 253.52C908.353 250.62 916.486 246.513 923.918 241.323C898.428 200.37 849.823 167.834 838.27 121C803.513 158.325 799.611 171.47 764.855 208.795C764.855 208.795 731.944 238.492 724.84 254.452C726.586 256.285 742.212 260.685 742.813 264.289C754.729 265.245 775.375 252.183 775.375 252.183C775.375 252.183 730.313 300.224 716.632 329.815C715.4 332.479 714.23 335.522 715.262 338.27C716.086 340.465 719.042 341.73 720.946 340.858C718.671 343.051 716.845 345.666 715.569 348.557C719.539 351.092 724.248 352.214 728.935 351.742C733.622 351.27 738.012 349.231 741.397 345.955C739.491 349.516 737.586 353.076 735.68 356.636L735.684 356.644C738.258 357.486 740.568 358.984 742.387 360.992C744.205 362.999 745.467 365.446 746.05 368.091C746.633 370.736 746.516 373.487 745.71 376.073C744.904 378.659 743.437 380.989 741.455 382.835C729.63 393.833 718.824 405.393 714.865 413.006C711.14 420.168 749.384 428.801 757.986 428.447C766.588 428.093 774.629 424.313 782.398 420.604C782.019 424.146 782.697 427.722 784.345 430.88C788.6 431.913 793.018 432.084 797.34 431.386C801.663 430.687 805.801 429.132 809.514 426.811C809.171 433.896 818.108 437.808 824.311 435.802C821.214 484.792 823.48 553.585 826.455 625H833.836V438.626C835.8 439.621 837.901 440.32 840.071 440.698C855.173 443.379 873.397 445.009 883.224 433.232C894.534 444.637 915.261 444.421 926.506 433.056C925.399 435.016 927.093 438.316 929.598 438.836C932.551 439.449 935.424 437.694 937.931 436.018C949.281 428.43 960.631 420.842 971.98 413.254C957.974 403.813 938.079 390.4 919.724 378.027Z" fill="#E6E6E6"/>
<path d="M62.9702 568.018C63.7103 568.052 64.4429 567.857 65.0689 567.461C65.6948 567.065 66.1839 566.486 66.4697 565.802C66.7555 565.119 66.8243 564.364 66.6667 563.64C66.5092 562.916 66.1329 562.258 65.5889 561.755C65.4978 561.393 65.4324 561.133 65.3413 560.771C65.3739 560.692 65.4067 560.613 65.4397 560.534C66.1852 558.773 67.4346 557.272 69.0307 556.219C70.6269 555.165 72.4987 554.607 74.411 554.614C76.3234 554.621 78.191 555.193 79.7793 556.259C81.3676 557.324 82.6057 558.834 83.3382 560.601C86.2655 567.651 89.9926 574.714 90.9103 582.169C91.3145 585.464 91.144 588.804 90.4064 592.041C97.282 577.043 100.852 560.741 100.875 544.242C100.877 540.102 100.647 535.965 100.186 531.85C99.8058 528.477 99.2779 525.128 98.6026 521.803C94.9174 503.761 87.0052 486.851 75.5156 472.461C69.9547 469.427 65.4575 464.761 62.63 459.092C61.6057 457.055 60.8818 454.879 60.4807 452.634C61.108 452.716 61.7456 452.768 62.3729 452.809C62.5683 452.819 62.774 452.83 62.9694 452.84L63.0431 452.843C63.7325 452.874 64.4162 452.705 65.0118 452.357C65.6074 452.008 66.0896 451.495 66.4003 450.878C66.7109 450.262 66.8368 449.569 66.7628 448.883C66.6888 448.197 66.4181 447.547 65.9832 447.011C65.7123 446.678 65.4413 446.344 65.1701 446.011C64.7587 445.497 64.3371 444.993 63.9258 444.479C63.8783 444.43 63.8337 444.379 63.7921 444.325C63.319 443.739 62.846 443.163 62.3729 442.577C63.2364 441.236 64.3978 440.114 65.7666 439.296C70.5074 436.52 77.0479 438.443 80.4724 442.731C83.9072 447.019 84.555 453.035 83.3622 458.393C82.1891 462.952 80.2485 467.278 77.6237 471.186C77.8809 471.515 78.1483 471.834 78.4054 472.163C83.1051 478.206 87.2012 484.696 90.6351 491.538C89.8 483.873 90.7967 476.118 93.5431 468.913C96.3266 462.199 101.544 456.543 106.138 450.738C111.657 443.766 122.973 446.809 123.945 455.648C123.955 455.733 123.964 455.819 123.973 455.904C123.29 456.289 122.622 456.698 121.969 457.13C121.148 457.679 120.511 458.463 120.143 459.379C119.775 460.295 119.693 461.301 119.906 462.266C120.12 463.23 120.62 464.107 121.34 464.782C122.061 465.457 122.969 465.899 123.945 466.049L124.045 466.065C123.802 468.524 123.372 470.962 122.759 473.356C120.984 480.04 117.847 486.286 113.545 491.701C109.243 497.116 103.869 501.584 97.7594 504.824C97.3583 505.03 96.9675 505.236 96.5664 505.431C98.4068 510.617 99.8776 515.926 100.968 521.32C101.943 526.075 102.623 530.887 103.004 535.727C103.47 541.825 103.443 547.95 102.922 554.043L102.953 553.827C104.269 547.051 107.883 540.938 113.185 536.519C121.059 530.05 132.184 527.668 140.679 522.469C141.582 521.889 142.632 521.58 143.705 521.577C144.778 521.575 145.829 521.879 146.735 522.454C147.64 523.03 148.363 523.852 148.816 524.824C149.27 525.796 149.436 526.878 149.295 527.942C149.284 528.017 149.272 528.093 149.26 528.169C147.994 528.684 146.761 529.278 145.569 529.948C144.886 530.333 144.218 530.741 143.565 531.173C142.744 531.722 142.107 532.506 141.739 533.422C141.371 534.339 141.289 535.345 141.502 536.309C141.716 537.273 142.216 538.15 142.936 538.825C143.657 539.5 144.565 539.942 145.541 540.093L145.641 540.108C145.713 540.118 145.774 540.129 145.846 540.139C143.682 545.305 140.646 550.061 136.869 554.197C132.203 559.203 126.563 563.204 120.296 565.954C114.029 568.704 107.266 570.145 100.423 570.188H100.412C98.5547 578.261 95.8631 586.119 92.3808 593.635H63.6892C63.5863 593.316 63.4938 592.987 63.4012 592.668C66.057 592.835 68.7232 592.676 71.3403 592.195C69.2116 589.583 67.0829 586.951 64.9541 584.339C64.9066 584.29 64.862 584.238 64.8204 584.184C63.7406 582.847 62.6505 581.521 61.5707 580.184L61.5702 580.182C61.5126 576.084 61.9829 571.996 62.9693 568.018L62.9702 568.018Z" fill="#E6E6E6"/>
<path d="M917.97 596.018C918.71 596.052 919.443 595.857 920.069 595.461C920.695 595.065 921.184 594.486 921.47 593.802C921.756 593.119 921.824 592.364 921.667 591.64C921.509 590.916 921.133 590.258 920.589 589.755C920.498 589.393 920.432 589.133 920.341 588.771C920.374 588.692 920.407 588.613 920.44 588.534C921.185 586.773 922.435 585.272 924.031 584.219C925.627 583.165 927.499 582.607 929.411 582.614C931.323 582.621 933.191 583.193 934.779 584.259C936.368 585.324 937.606 586.834 938.338 588.601C941.266 595.651 944.993 602.714 945.91 610.169C946.315 613.464 946.144 616.804 945.406 620.041C952.282 605.043 955.852 588.741 955.875 572.242C955.877 568.102 955.647 563.965 955.186 559.85C954.806 556.477 954.278 553.128 953.603 549.803C949.917 531.761 942.005 514.851 930.516 500.461C924.955 497.427 920.458 492.761 917.63 487.092C916.606 485.055 915.882 482.879 915.481 480.634C916.108 480.716 916.746 480.768 917.373 480.809C917.568 480.819 917.774 480.83 917.969 480.84L918.043 480.843C918.733 480.874 919.416 480.705 920.012 480.356C920.607 480.008 921.09 479.495 921.4 478.878C921.711 478.262 921.837 477.569 921.763 476.883C921.689 476.197 921.418 475.547 920.983 475.011C920.712 474.678 920.441 474.344 920.17 474.011C919.759 473.497 919.337 472.993 918.926 472.479C918.878 472.43 918.834 472.379 918.792 472.325C918.319 471.739 917.846 471.163 917.373 470.577C918.236 469.236 919.398 468.114 920.767 467.296C925.507 464.519 932.048 466.443 935.473 470.731C938.907 475.019 939.555 481.035 938.362 486.393C937.189 490.952 935.249 495.278 932.624 499.186C932.881 499.515 933.148 499.834 933.405 500.163C938.105 506.206 942.201 512.696 945.635 519.538C944.8 511.873 945.797 504.118 948.543 496.913C951.327 490.199 956.544 484.543 961.138 478.738C966.657 471.766 977.973 474.809 978.945 483.648C978.955 483.733 978.964 483.819 978.973 483.904C978.29 484.289 977.622 484.698 976.969 485.13C976.148 485.679 975.512 486.463 975.144 487.379C974.776 488.295 974.693 489.301 974.907 490.266C975.12 491.23 975.62 492.107 976.341 492.782C977.061 493.457 977.969 493.899 978.945 494.049L979.045 494.065C978.802 496.524 978.372 498.962 977.759 501.356C975.984 508.04 972.847 514.286 968.545 519.701C964.243 525.116 958.869 529.584 952.76 532.824C952.358 533.03 951.968 533.236 951.567 533.431C955.017 543.208 957.181 553.392 958.004 563.727C958.47 569.824 958.443 575.95 957.922 582.043L957.953 581.827C959.269 575.051 962.883 568.938 968.185 564.519C976.06 558.05 987.185 555.668 995.68 550.469C996.583 549.889 997.632 549.58 998.705 549.577C999.778 549.575 1000.83 549.879 1001.73 550.454C1002.64 551.029 1003.36 551.852 1003.82 552.824C1004.27 553.796 1004.44 554.878 1004.3 555.941C1004.28 556.017 1004.27 556.093 1004.26 556.168C1002.99 556.684 1001.76 557.278 1000.57 557.947C999.886 558.333 999.218 558.741 998.565 559.173C997.744 559.722 997.108 560.506 996.74 561.422C996.372 562.338 996.289 563.345 996.502 564.309C996.716 565.273 997.216 566.15 997.937 566.825C998.657 567.5 999.565 567.942 1000.54 568.092L1000.64 568.108C1000.71 568.118 1000.77 568.128 1000.85 568.139C998.683 573.305 995.646 578.061 991.869 582.197C987.203 587.203 981.563 591.204 975.296 593.954C969.029 596.704 962.267 598.145 955.423 598.188H955.413C953.555 606.261 950.863 614.119 947.381 621.635H918.689C918.586 621.316 918.494 620.987 918.401 620.668C921.057 620.835 923.723 620.676 926.34 620.195C924.212 617.583 922.083 614.95 919.954 612.338C919.907 612.29 919.862 612.238 919.82 612.184C918.741 610.847 917.651 609.521 916.571 608.184L916.57 608.182C916.513 604.084 916.983 599.996 917.969 596.018L917.97 596.018Z" fill="#E6E6E6"/>
<path d="M576.97 513.018C577.71 513.052 578.443 512.857 579.069 512.461C579.695 512.065 580.184 511.486 580.47 510.802C580.756 510.119 580.824 509.364 580.667 508.64C580.509 507.916 580.133 507.258 579.589 506.755C579.498 506.393 579.432 506.133 579.341 505.771C579.374 505.692 579.407 505.613 579.44 505.534C580.185 503.773 581.435 502.272 583.031 501.219C584.627 500.165 586.499 499.607 588.411 499.614C590.323 499.621 592.191 500.193 593.779 501.259C595.368 502.324 596.606 503.834 597.338 505.601C600.266 512.651 603.993 519.714 604.91 527.169C605.315 530.464 605.144 533.804 604.406 537.041C611.282 522.043 614.852 505.741 614.875 489.242C614.877 485.102 614.647 480.965 614.186 476.85C613.806 473.477 613.278 470.128 612.603 466.803C608.917 448.761 601.005 431.851 589.516 417.461C583.955 414.427 579.458 409.761 576.63 404.092C575.606 402.055 574.882 399.879 574.481 397.634C575.108 397.716 575.746 397.768 576.373 397.809C576.568 397.819 576.774 397.83 576.969 397.84L577.043 397.843C577.733 397.874 578.416 397.705 579.012 397.357C579.607 397.008 580.09 396.495 580.4 395.878C580.711 395.262 580.837 394.569 580.763 393.883C580.689 393.197 580.418 392.547 579.983 392.011C579.712 391.678 579.441 391.344 579.17 391.011C578.759 390.497 578.337 389.993 577.926 389.479C577.878 389.43 577.834 389.379 577.792 389.325C577.319 388.739 576.846 388.163 576.373 387.577C577.236 386.236 578.398 385.114 579.767 384.296C584.507 381.52 591.048 383.443 594.472 387.731C597.907 392.019 598.555 398.035 597.362 403.393C596.189 407.952 594.249 412.278 591.624 416.186C591.881 416.515 592.148 416.834 592.405 417.163C597.105 423.206 601.201 429.696 604.635 436.538C603.8 428.873 604.797 421.118 607.543 413.913C610.327 407.199 615.544 401.543 620.138 395.738C625.657 388.766 636.973 391.809 637.945 400.648C637.955 400.733 637.964 400.819 637.973 400.904C637.29 401.289 636.622 401.698 635.969 402.13C635.148 402.679 634.512 403.463 634.144 404.379C633.776 405.295 633.693 406.301 633.907 407.266C634.12 408.23 634.62 409.107 635.341 409.782C636.061 410.457 636.969 410.899 637.945 411.049L638.045 411.065C637.802 413.524 637.372 415.962 636.759 418.356C634.984 425.04 631.847 431.286 627.545 436.701C623.243 442.116 617.869 446.584 611.759 449.824C611.358 450.03 610.967 450.236 610.566 450.431C614.016 460.208 616.18 470.392 617.004 480.727C617.47 486.825 617.443 492.95 616.922 499.043L616.953 498.827C618.269 492.051 621.883 485.938 627.185 481.519C635.059 475.05 646.184 472.668 654.68 467.469C655.582 466.889 656.632 466.58 657.705 466.577C658.778 466.575 659.829 466.879 660.735 467.454C661.64 468.03 662.363 468.852 662.816 469.824C663.27 470.796 663.436 471.878 663.295 472.942C663.284 473.017 663.272 473.093 663.26 473.169C661.994 473.684 660.761 474.278 659.569 474.948C658.886 475.333 658.218 475.741 657.565 476.173C656.744 476.722 656.107 477.506 655.739 478.422C655.371 479.339 655.289 480.345 655.502 481.309C655.716 482.273 656.216 483.15 656.936 483.825C657.657 484.5 658.565 484.942 659.541 485.093L659.641 485.108C659.713 485.118 659.774 485.129 659.846 485.139C657.682 490.305 654.646 495.061 650.869 499.197C646.203 504.203 640.563 508.204 634.296 510.954C628.029 513.704 621.267 515.145 614.423 515.188H614.413C612.555 523.261 609.863 531.119 606.381 538.635H577.689C577.586 538.316 577.494 537.987 577.401 537.668C580.057 537.835 582.723 537.676 585.34 537.195C583.212 534.583 581.083 531.951 578.954 529.338C578.907 529.29 578.862 529.238 578.82 529.184C577.741 527.847 576.651 526.521 575.571 525.184L575.57 525.182C575.513 521.084 575.983 516.996 576.969 513.018L576.97 513.018Z" fill="#E6E6E6"/>
<path d="M319.901 699.669L318.821 701.498L319.592 701.62L319.901 699.669Z" fill="#2F2E41"/>
</g>
<defs>
<clipPath id="clip0_2_3">
<rect width="1017.83" height="752.269" fill="white"/>
</clipPath>
</defs>
</svg>
